<?xml version="1.0" encoding="UTF-8"?>
<svg id="Layer_3" data-name="Layer 3" xmlns="http://www.w3.org/2000/svg" viewBox="0 0 159.5 47.32">
  <defs>
    <style>
      .cls-1 {
        fill: #231f20;
      }

      .cls-2 {
        fill: #b2965b;
        fill-rule: evenodd;
      }

      .cls-3 {
        fill: #423418;
      }
    </style>
  </defs>
  <g id="Layer_1" data-name="Layer 1">
    <g id="Horizontal_Logo_EN" data-name="Horizontal Logo EN">
      <path class="cls-1" d="M45.32,11.86v-7.66h-2.82c-2.18,0-4.15.88-5.57,2.31-1.43,1.43-2.31,3.4-2.31,5.57h9.38c.46,0,.9-.07,1.32-.22Z"/>
      <path class="cls-1" d="M27.94,12.39l-.52.58-5.76,6.63c-1.64,1.88-4,2.96-6.49,2.96H.14v-10.48l24.67.08,1.29-1.43c.54-.59.81-1.36.77-2.17-.04-.81-.39-1.54-.98-2.08L18.73,0h3.69l5.13,4.65c1.08.98,1.72,2.33,1.79,3.79.07,1.47-.42,2.87-1.4,3.95Z"/>
      <path class="cls-1" d="M36.55,28.16c-3.69,0-7.17,1.71-9.42,4.64l-.23,7.27h11v1.9H12.42l-1.87,2.32c-.09.08-2.67.14-3.22.13-.84-.01-1.55-.46-1.8-1.29-.19-.67-.08-1.58.82-2.12l2.99-1.73c2.66-1.54,5.55-2.61,8.53-3.39,2.57-.67,4.91-2.09,6.71-4.11l2.03-2.28c1.94-2.18,4.72-3.43,7.64-3.43h11.09v-10.57l-11.93-.28c-2.02-.05-3.96.81-5.28,2.35l-4.05,4.71c-2.02,2.35-4.96,3.7-8.05,3.7H.14v10.48h6.14l2.7-.16c.21-.03.29.26.1.35l-1.95,1-2.04,1.23c-1.71,1.02-2.48,3-1.92,4.93.54,1.86,2.17,3.08,4.08,3.08l38.1-.05v-18.69h-8.79Z"/>
      <path class="cls-1" d="M4.37,5.27v-.02c.43-.14.76-.5.76-1.03,0-.31-.11-.59-.32-.77-.25-.23-.61-.33-1.17-.33-.36,0-.74.03-1,.08v3.99h.52v-1.75h.49c.47.02.69.23.81.79.11.5.2.85.27.97h.54c-.08-.16-.18-.55-.31-1.11-.1-.42-.28-.71-.59-.82ZM3.7,5.04h-.53v-1.48c.08-.02.26-.05.52-.05.55,0,.93.23.93.76,0,.46-.35.77-.91.77Z"/>
      <path class="cls-1" d="M3.71,1.63C1.66,1.63,0,3.29,0,5.33s1.66,3.71,3.71,3.71,3.71-1.66,3.71-3.71-1.66-3.71-3.71-3.71ZM3.71,8.54c-1.77,0-3.21-1.44-3.21-3.21s1.44-3.21,3.21-3.21,3.21,1.44,3.21,3.21-1.44,3.21-3.21,3.21Z"/>
      <path class="cls-1" d="M4.37,5.27v-.02c.43-.14.76-.5.76-1.03,0-.31-.11-.59-.32-.77-.25-.23-.61-.33-1.17-.33-.36,0-.74.03-1,.08v3.99h.52v-1.75h.49c.47.02.69.23.81.79.11.5.2.85.27.97h.54c-.08-.16-.18-.55-.31-1.11-.1-.42-.28-.71-.59-.82ZM3.7,5.04h-.53v-1.48c.08-.02.26-.05.52-.05.55,0,.93.23.93.76,0,.46-.35.77-.91.77Z"/>
      <path class="cls-1" d="M3.71,1.63C1.66,1.63,0,3.29,0,5.33s1.66,3.71,3.71,3.71,3.71-1.66,3.71-3.71-1.66-3.71-3.71-3.71ZM3.71,8.54c-1.77,0-3.21-1.44-3.21-3.21s1.44-3.21,3.21-3.21,3.21,1.44,3.21,3.21-1.44,3.21-3.21,3.21Z"/>
      <path class="cls-3" d="M4.37,5.27v-.02c.43-.14.76-.5.76-1.03,0-.31-.11-.59-.32-.77-.25-.23-.61-.33-1.17-.33-.36,0-.74.03-1,.08v3.99h.52v-1.75h.49c.47.02.69.23.81.79.11.5.2.85.27.97h.54c-.08-.16-.18-.55-.31-1.11-.1-.42-.28-.71-.59-.82ZM3.7,5.04h-.53v-1.48c.08-.02.26-.05.52-.05.55,0,.93.23.93.76,0,.46-.35.77-.91.77Z"/>
      <path class="cls-3" d="M3.71,1.63C1.66,1.63,0,3.29,0,5.33s1.66,3.71,3.71,3.71,3.71-1.66,3.71-3.71-1.66-3.71-3.71-3.71ZM3.71,8.54c-1.77,0-3.21-1.44-3.21-3.21s1.44-3.21,3.21-3.21,3.21,1.44,3.21,3.21-1.44,3.21-3.21,3.21Z"/>
      <g>
        <path class="cls-3" d="M45.32,11.86v-7.66h-2.82c-2.18,0-4.15.88-5.57,2.31-1.43,1.43-2.31,3.4-2.31,5.57h9.38c.46,0,.9-.07,1.32-.22Z"/>
        <path class="cls-3" d="M27.94,12.39l-.52.58-5.76,6.63c-1.64,1.88-4,2.96-6.49,2.96H.14v-10.48l24.67.08,1.29-1.43c.54-.59.81-1.36.77-2.17-.04-.81-.39-1.54-.98-2.08L18.73,0h3.69l5.13,4.65c1.08.98,1.72,2.33,1.79,3.79.07,1.47-.42,2.87-1.4,3.95Z"/>
        <path class="cls-3" d="M36.55,28.16c-3.69,0-7.17,1.71-9.42,4.64l-.23,7.27h11v1.9H12.42l-1.87,2.32c-.09.08-2.67.14-3.22.13-.84-.01-1.55-.46-1.8-1.29-.19-.67-.08-1.58.82-2.12l2.99-1.73c2.66-1.54,5.55-2.61,8.53-3.39,2.57-.67,4.91-2.09,6.71-4.11l2.03-2.28c1.94-2.18,4.72-3.43,7.64-3.43h11.09v-10.57l-11.93-.28c-2.02-.05-3.96.81-5.28,2.35l-4.05,4.71c-2.02,2.35-4.96,3.7-8.05,3.7H.14v10.48h6.14l2.7-.16c.21-.03.29.26.1.35l-1.95,1-2.04,1.23c-1.71,1.02-2.48,3-1.92,4.93.54,1.86,2.17,3.08,4.08,3.08l38.1-.05v-18.69h-8.79Z"/>
        <path class="cls-3" d="M4.37,5.27v-.02c.43-.14.76-.5.76-1.03,0-.31-.11-.59-.32-.77-.25-.23-.61-.33-1.17-.33-.36,0-.74.03-1,.08v3.99h.52v-1.75h.49c.47.02.69.23.81.79.11.5.2.85.27.97h.54c-.08-.16-.18-.55-.31-1.11-.1-.42-.28-.71-.59-.82ZM3.7,5.04h-.53v-1.48c.08-.02.26-.05.52-.05.55,0,.93.23.93.76,0,.46-.35.77-.91.77Z"/>
        <path class="cls-3" d="M3.71,1.63C1.66,1.63,0,3.29,0,5.33s1.66,3.71,3.71,3.71,3.71-1.66,3.71-3.71-1.66-3.71-3.71-3.71ZM3.71,8.54c-1.77,0-3.21-1.44-3.21-3.21s1.44-3.21,3.21-3.21,3.21,1.44,3.21,3.21-1.44,3.21-3.21,3.21Z"/>
      </g>
      <g>
        <path class="cls-2" d="M67.8,29.18h-2.9l-.76-2.2h-4.02l-.76,2.2h-2.83l4.02-10.87h3.23l4.02,10.87ZM63.47,24.99l-1.34-3.9-1.34,3.9h2.68Z"/>
        <path class="cls-2" d="M76.62,29.18h-7.84v-10.87h2.8v8.77h5.04v2.1Z"/>
        <path class="cls-2" d="M89.52,20.41h-5v2.02h4.64v2.1h-4.64v4.64h-2.79v-10.87h7.79v2.1Z"/>
        <path class="cls-2" d="M100.92,29.18h-2.9l-.76-2.2h-4.02l-.76,2.2h-2.83l4.02-10.87h3.23l4.02,10.87ZM96.6,24.99l-1.34-3.9-1.34,3.9h2.68Z"/>
        <path class="cls-2" d="M111.65,29.18h-2.8v-4.79h-4.14v4.79h-2.8v-10.87h2.8v3.98h4.14v-3.98h2.8v10.87Z"/>
        <path class="cls-2" d="M124.12,23.76c0,1.01-.23,1.92-.69,2.72-.46.8-1.05,1.42-1.75,1.84-.53.32-1.11.55-1.74.67-.63.13-1.38.19-2.25.19h-3.83v-10.87h3.94c.89,0,1.65.07,2.29.22.64.15,1.18.36,1.62.63.75.46,1.34,1.07,1.77,1.85.43.78.65,1.69.65,2.74ZM121.22,23.73c0-.72-.13-1.33-.39-1.84s-.67-.91-1.24-1.19c-.29-.14-.58-.24-.88-.29-.3-.05-.75-.08-1.35-.08h-.71v6.8h.71c.67,0,1.16-.03,1.47-.09.31-.06.62-.17.91-.33.51-.29.89-.68,1.12-1.17.24-.49.36-1.09.36-1.81Z"/>
        <path class="cls-2" d="M67.55,47.02h-3.42l-2.96-3.99h-1.3v3.99h-2.79v-10.87h4.7c.64,0,1.19.04,1.66.11.46.07.9.23,1.3.47.41.24.73.56.97.95s.36.87.36,1.46c0,.8-.19,1.46-.56,1.96-.37.51-.9.93-1.6,1.26l3.63,4.66ZM63.18,39.47c0-.27-.06-.51-.17-.7-.11-.19-.3-.35-.58-.46-.19-.08-.41-.13-.66-.14-.25-.02-.55-.03-.88-.03h-1.01v2.93h.86c.45,0,.82-.02,1.12-.07.3-.04.55-.14.76-.3.19-.15.34-.32.43-.5s.13-.43.13-.73Z"/>
        <path class="cls-2" d="M76.06,47.02h-7.86v-10.87h7.86v2.1h-5.07v1.88h4.71v2.1h-4.71v2.69h5.07v2.1Z"/>
        <path class="cls-2" d="M87.88,47.02h-2.9l-.76-2.2h-4.02l-.76,2.2h-2.83l4.02-10.87h3.23l4.02,10.87ZM83.55,42.83l-1.34-3.9-1.34,3.9h2.68Z"/>
        <path class="cls-2" d="M96.7,47.02h-7.84v-10.87h2.8v8.77h5.04v2.1Z"/>
        <path class="cls-2" d="M109.57,47.12h-7.86v-10.87h7.86v2.1h-5.07v1.88h4.71v2.1h-4.71v2.69h5.07v2.1Z"/>
        <path class="cls-2" d="M120.05,43.71c0,1.07-.45,1.94-1.36,2.61-.91.67-2.14,1-3.7,1-.9,0-1.69-.08-2.35-.24-.67-.16-1.3-.36-1.88-.6v-2.61h.31c.58.46,1.23.82,1.95,1.07.72.25,1.41.37,2.07.37.17,0,.39-.01.67-.04.28-.03.5-.08.68-.15.21-.09.39-.2.53-.33.14-.13.21-.33.21-.58,0-.24-.1-.44-.3-.62s-.5-.31-.89-.4c-.41-.1-.84-.19-1.3-.27-.45-.09-.88-.19-1.28-.32-.92-.3-1.57-.7-1.98-1.21-.4-.51-.6-1.14-.6-1.89,0-1.01.45-1.84,1.36-2.48s2.07-.96,3.5-.96c.72,0,1.42.07,2.12.21.7.14,1.3.31,1.81.52v2.5h-.3c-.44-.35-.97-.64-1.61-.88-.64-.24-1.28-.35-1.95-.35-.23,0-.47.02-.7.05s-.45.09-.67.18c-.19.07-.35.18-.49.33-.14.15-.2.32-.2.51,0,.29.11.51.33.66.22.15.63.29,1.24.42.4.08.78.16,1.15.24.37.08.76.19,1.19.32.83.27,1.45.64,1.84,1.11.4.47.59,1.08.59,1.83Z"/>
        <path class="cls-2" d="M129.89,38.36h-3.39v8.77h-2.8v-8.77h-3.39v-2.1h9.59v2.1Z"/>
        <path class="cls-2" d="M141.04,47.12h-2.9l-.76-2.2h-4.02l-.76,2.2h-2.83l4.02-10.87h3.23l4.02,10.87ZM136.72,42.93l-1.34-3.9-1.34,3.9h2.68Z"/>
        <path class="cls-2" d="M150.53,38.36h-3.39v8.77h-2.8v-8.77h-3.39v-2.1h9.59v2.1Z"/>
        <path class="cls-2" d="M159.5,47.12h-7.86v-10.87h7.86v2.1h-5.07v1.88h4.71v2.1h-4.71v2.69h5.07v2.1Z"/>
      </g>
    </g>
  </g>
</svg>