<?xml version="1.0" encoding="UTF-8"?>
<svg id="Layer_2" data-name="Layer 2" xmlns="http://www.w3.org/2000/svg" viewBox="0 0 290.87 80.4">
  <defs>
    <style>
      .cls-1 {
        fill: #b2965b;
        fill-rule: evenodd;
      }

      .cls-2 {
        fill: #423418;
      }
    </style>
  </defs>
  <g id="Layer_1" data-name="Layer 1">
    <g id="Horizontal_Logo_AR1" data-name="Horizontal Logo AR1">
      <g>
        <path class="cls-2" d="M257.93,10.97c.5.45.9.99,1.18,1.59.28.6.45,1.25.48,1.93.02.34,0,.68-.05,1.01-.1.66-.32,1.29-.66,1.86-.17.28-.37.55-.6.81l-2.19,2.41-41.78-.14v17.74h25.45c4.21,0,8.22-1.83,10.99-5.01l9.76-11.22.89-.98c1.66-1.83,2.5-4.21,2.38-6.69-.03-.62-.12-1.23-.27-1.82-.22-.88-.57-1.72-1.03-2.5-.15-.26-.32-.51-.5-.75-.36-.49-.77-.94-1.23-1.35l-8.69-7.87h-6.25,0,0l12.13,10.97Z"/>
        <path class="cls-2" d="M275.98,47.68c-3.51,0-6.92.92-9.9,2.6-.33.19-.66.38-.98.59-1.92,1.24-3.65,2.8-5.07,4.66l-.2,6.16-.2,6.16h18.62v3.21h-43.13l-3.16,3.92s-.04.02-.08.02c-.24.05-1.01.09-1.9.13-.3.01-.61.02-.92.03-.31,0-.62.02-.91.02-.73.02-1.36.02-1.65.02-.35,0-.7-.06-1.02-.15-.96-.29-1.72-.97-2.03-2.03-.08-.28-.13-.59-.14-.91,0-.32.04-.64.13-.96.1-.32.25-.63.48-.92.23-.29.52-.56.9-.78l5.07-2.92c1.13-.65,2.28-1.25,3.45-1.81,2.93-1.39,5.98-2.51,9.11-3.41.62-.18,1.25-.35,1.88-.52.54-.14,1.08-.3,1.61-.48.53-.18,1.06-.38,1.57-.6,1.55-.66,3.02-1.48,4.39-2.47s2.64-2.13,3.79-3.41l3.43-3.87c3.28-3.7,7.99-5.81,12.93-5.81h18.77v-17.89h0l-10.1-.24-10.1-.24c-2.36-.06-4.63.63-6.56,1.9-.87.58-1.68,1.26-2.38,2.08l-6.85,7.98c-1.28,1.49-2.78,2.75-4.43,3.73-2.75,1.64-5.92,2.54-9.19,2.54h-26.92v17.74h10.4l4.56-.26c.09-.01.17,0,.22.05s.1.1.12.17c.04.14,0,.3-.17.38l-3.31,1.7-3.46,2.08c-.36.22-.7.46-1.01.72-.62.53-1.14,1.14-1.54,1.82-.4.68-.69,1.41-.85,2.19-.24,1.16-.21,2.39.15,3.62.11.39.26.77.43,1.13.34.72.78,1.36,1.31,1.91.26.27.55.53.85.76,1.21.91,2.71,1.43,4.33,1.43l64.51-.09v-31.64h-14.89Z"/>
        <path class="cls-2" d="M288.59,20.45c.39,0,.77-.03,1.14-.09.37-.06.74-.15,1.1-.27V7.1h-4.78c-1.84,0-3.6.37-5.19,1.05-.4.17-.79.36-1.17.56-1.13.62-2.17,1.39-3.08,2.3-1.51,1.51-2.66,3.38-3.31,5.47-.26.84-.44,1.71-.53,2.6-.05.45-.07.9-.07,1.36h15.88Z"/>
        <path class="cls-2" d="M219.45,12.18v-2.97h.83c.1,0,.19.01.28.03.52.09.82.38,1.01.98.03.1.06.21.08.33.19.85.34,1.44.46,1.64h.91c-.04-.07-.07-.16-.11-.27-.04-.11-.08-.25-.12-.41-.09-.32-.18-.72-.29-1.2-.16-.71-.48-1.2-1.01-1.38v-.03c.72-.24,1.29-.84,1.29-1.75h0c0-.13-.01-.26-.04-.38-.05-.25-.14-.47-.27-.66-.07-.09-.14-.18-.23-.26-.11-.1-.22-.18-.36-.25-.13-.07-.28-.13-.44-.17-.32-.09-.71-.13-1.19-.13-.3,0-.62.01-.91.04s-.56.06-.79.11v6.76h.88ZM221.89,7.24c0,.1,0,.19-.03.28-.07.36-.29.64-.61.81-.24.13-.55.21-.9.21h-.9v-2.5c.11-.03.3-.06.58-.07.09,0,.19,0,.3,0,.35,0,.66.06.91.18.17.08.31.18.41.31.16.2.25.46.25.79Z"/>
        <path class="cls-2" d="M215.16,12.54c.23.33.48.65.77.93.28.28.6.54.93.77.17.11.34.22.52.31.36.19.73.35,1.12.48.59.18,1.22.28,1.86.28s1.27-.1,1.86-.28c.39-.12.77-.28,1.12-.48.18-.1.35-.2.52-.31.33-.23.64-.48.93-.77.28-.28.54-.6.77-.93.34-.5.61-1.05.79-1.64.18-.59.28-1.21.28-1.86,0-.87-.18-1.69-.49-2.44-.16-.38-.35-.73-.58-1.07-1.13-1.67-3.04-2.77-5.2-2.77s-4.07,1.1-5.2,2.77c-.23.33-.42.69-.58,1.07-.32.75-.49,1.58-.49,2.44,0,.65.1,1.27.28,1.86.18.59.45,1.14.79,1.64ZM217.33,4.53c.87-.59,1.91-.93,3.03-.93s2.17.34,3.03.93c1.01.68,1.78,1.7,2.15,2.89.11.34.18.69.22,1.06.02.18.03.37.03.55,0,.37-.04.74-.11,1.09-.51,2.47-2.7,4.34-5.32,4.34s-4.81-1.86-5.32-4.34c-.07-.35-.11-.72-.11-1.09,0-.19,0-.37.03-.55.04-.36.11-.72.22-1.06.37-1.19,1.14-2.2,2.15-2.89Z"/>
      </g>
      <g>
        <g>
          <path class="cls-1" d="M3.52,78.34c-.05-.32-.19-.6-.4-.85-.03-.04-.06-.07-.09-.11-.09-.08-.19-.15-.29-.21-.3-.18-.64-.28-.99-.28-.31,0-.59.08-.84.24-.13.08-.26.17-.38.29-.09.08-.16.17-.23.26s-.12.19-.16.29c-.09.21-.13.44-.13.7,0,.22.04.42.11.61.09.24.22.46.41.63.03.03.07.05.11.08.25.19.52.33.79.38.11.02.21.03.32.03.49,0,.93-.17,1.28-.52h0c.22-.2.36-.44.44-.7.05-.16.08-.33.08-.51,0-.11-.01-.22-.03-.32Z"/>
          <path class="cls-1" d="M30.1,70.81h-5.34c-.38,0-.71-.07-1.01-.17-1.12-.41-1.69-1.55-1.69-3.46,0-3.11,1.19-4.65,3.6-4.65h2.56l.47-1.95h-2.82c-.25,0-.5.01-.74.03-1.7.15-3.1.8-4.19,1.94-.94.98-1.53,2.19-1.77,3.63-.08.48-.12.98-.12,1.51,0,.21,0,.42.02.63.11,1.43.63,2.61,1.54,3.5.24.24.5.45.77.63.82.53,1.79.8,2.95.8h2.82c0,.78-.26,1.59-.77,2.38-.04.06-.06.12-.1.17-.18.25-.36.47-.56.66,0,0-.01.01-.02.02-.62.6-1.34.95-2.15,1.06h-13.47v1.89h0s14.13,0,14.13,0c.64-.1,1.24-.26,1.79-.5.92-.4,1.73-.99,2.42-1.79.06-.07.12-.15.18-.22,1.01-1.25,1.51-2.63,1.51-4.19v-1.92h0Z"/>
          <path class="cls-1" d="M7.78,77.55c-.05-.06-.09-.12-.14-.17-.06-.06-.12-.1-.19-.15-.3-.22-.66-.34-1.06-.34-.3,0-.57.07-.81.2-.15.08-.3.18-.44.32-.32.32-.49.75-.49,1.25,0,.35.09.67.27.94.06.1.14.19.23.28.01.01.02.02.03.04h0s.03.02.04.03c.31.3.71.46,1.18.46h0s.02,0,.03,0c.48,0,.9-.18,1.24-.52.02-.02.04-.05.07-.08.27-.31.43-.68.43-1.14,0-.42-.13-.79-.38-1.1Z"/>
        </g>
        <g>
          <path class="cls-1" d="M111.54,38.35h41.18c.39,0,1.74-.19,4.11-.58,2.56.39,3.91.58,4.06.58h18.51c2.22,0,3.96-.63,5.27-1.93,1.3-1.3,1.93-3.04,1.93-5.27h-.05V6.94l-5.65,1.35.87,6.38v15.37c0,2.66-1.21,3.96-3.58,3.96h-13.34c1.69-1.64,2.51-3.72,2.51-6.28,0-2.85-.92-5.17-2.8-7.01-1.88-1.88-4.49-2.8-7.73-2.8s-5.85.92-7.73,2.8c-1.88,1.84-2.8,4.16-2.8,7.01,0,2.56.82,4.64,2.47,6.28h-9.52v-9.52c0-2.8-1.26-4.93-3.72-6.38-1.98-1.21-4.69-1.84-8.07-1.84s-6.28.53-9.04,1.55l-.77,3.58c2.9-1.26,5.75-1.89,8.51-1.89,2.42,0,4.45.53,6.04,1.55,1.5.97,2.27,2.37,2.27,4.25v8.7h-2.75l.15-5.65c0-1.93-.63-3.43-1.84-4.5-1.06-.97-2.51-1.45-4.35-1.45-2.37,0-4.45.87-6.33,2.56-1.79,1.69-2.71,3.72-2.71,6.04,0,1.11.24,2.08.77,3h-8.99v-5.27c0-3.09-.92-5.65-2.75-7.73-1.79-2.08-4.16-3.09-7.1-3.09-.43.05-.77.1-1.01.14-.1.05-.19.05-.29.05h-.19l.24,2.71c.43-.24.92-.34,1.5-.34,1.4,0,2.56.63,3.38,1.84.92,1.4,1.4,3.24,1.4,5.61v5.07l-.14,1.02h-12.23l-1.26,4.35h21.6ZM153.15,22.65c.97-.97,2.17-1.45,3.67-1.45s2.66.48,3.62,1.45c1.16,1.16,1.74,2.75,1.74,4.83,0,1.89-.44,3.48-1.26,4.79-.97,1.55-2.32,2.32-4.06,2.32-3.62,0-5.41-2.37-5.41-7.11,0-2.08.58-3.72,1.69-4.83ZM122.46,26.61c.92-1.21,1.89-1.79,2.95-1.79,1.3,0,1.98.92,1.98,2.8h-.05v6.38h-3.14c-2.27,0-3.38-.92-3.38-2.71s.53-3.38,1.64-4.69Z"/>
          <path class="cls-1" d="M156.83,13.08c.77,0,1.45-.29,2.03-.87.58-.53.87-1.21.87-2.03s-.29-1.55-.87-2.13c-.63-.53-1.3-.82-2.03-.82-.82,0-1.55.29-2.13.87-.58.53-.87,1.21-.87,2.03,0,.87.29,1.59.87,2.13.63.53,1.35.82,2.13.82Z"/>
          <polygon class="cls-1" points="192.11 38.35 196.9 38.35 196.9 13.56 197.38 7.13 191.34 7.62 192.11 13.61 192.11 38.35"/>
          <path class="cls-1" d="M35.6,65.55l.03,7.28c0,2.87-1.33,4.75-4,5.6l.61,1.13c4.15-1.16,6.23-3.71,6.23-7.63v-11.05l-3.45.78.58,3.89Z"/>
          <path class="cls-1" d="M54.71,57.99c.49,0,.93-.17,1.28-.52.35-.32.52-.72.52-1.22s-.17-.93-.55-1.28c-.38-.32-.81-.49-1.25-.49s-.87.17-1.25.52c-.35.32-.52.72-.52,1.25s.17.93.55,1.25c.38.32.78.49,1.22.49Z"/>
          <path class="cls-1" d="M59.34,57.99c.49,0,.93-.17,1.28-.52.32-.32.49-.72.49-1.22s-.17-.93-.52-1.28c-.38-.32-.81-.49-1.25-.49-.49,0-.9.17-1.25.52-.35.32-.52.72-.52,1.25,0,.49.17.93.52,1.25.38.32.81.49,1.25.49Z"/>
          <path class="cls-1" d="M93.47,54.3l-3.39.81.52,3.83v9.22c0,1.59-.73,2.38-2.15,2.38h-9.83c-.09,0-.2,0-.29-.03l-.58-.09,4.9-4.52c-.03-1.36-.73-2.61-2.15-3.68-1.48-1.13-3.25-1.68-5.31-1.68s-3.8.55-5.31,1.65c-1.45,1.1-2.17,2.35-2.17,3.71l3.13,2.96,1.71,1.57c-.29.09-.67.12-1.13.12h-9.6c1.01-.98,1.51-2.23,1.51-3.77,0-1.71-.55-3.1-1.68-4.2-1.13-1.13-2.7-1.68-4.64-1.68s-3.51.55-4.64,1.68c-1.13,1.1-1.68,2.49-1.68,4.2,0,1.54.49,2.78,1.48,3.77h-5.86c-1.39,0-2.09-.78-2.09-2.38v-13.68l-3.39.78.49,3.71v9.86c0,1.36.38,2.41,1.16,3.19.75.75,1.8,1.13,3.13,1.13h8.93c.23,0,1.04-.12,2.46-.35,1.54.23,2.35.35,2.44.35h12.44c0-.46.43-.67,1.28-.64,1.13.03,1.8,0,2-.12,1.22.49,2.23.75,3.01.75h10.99c1.33,0,2.38-.38,3.16-1.16.78-.78,1.16-1.83,1.16-3.16h-.03v-14.52ZM59.49,69.5c-.58.93-1.39,1.39-2.44,1.39-2.17,0-3.25-1.42-3.25-4.26,0-1.25.35-2.23,1.01-2.9.58-.58,1.3-.87,2.2-.87s1.59.29,2.17.87c.7.7,1.04,1.65,1.04,2.9,0,1.13-.26,2.09-.75,2.87ZM73.81,68.19l-2.93-2.81c.09-.55.49-1.07,1.22-1.54.78-.52,1.83-.78,3.13-.78s2.32.26,3.16.78c.64.4,1.02.93,1.13,1.54l-4.32,4.09c-.43-.38-.9-.78-1.39-1.27Z"/>
          <polygon class="cls-1" points="96.81 58.3 96.81 73.15 99.68 73.15 99.68 58.28 99.97 54.42 96.34 54.71 96.81 58.3"/>
          <path class="cls-1" d="M124.9,76.54c-.38-.32-.81-.49-1.25-.49-.49,0-.9.17-1.25.52-.38.32-.55.72-.55,1.22,0,.55.17.96.55,1.28.38.32.81.49,1.28.49.49,0,.9-.17,1.25-.55.35-.35.52-.75.52-1.19h-.03c0-.49-.17-.93-.52-1.27Z"/>
          <path class="cls-1" d="M120.29,76.54c-.38-.32-.81-.49-1.28-.49s-.87.17-1.22.52c-.38.32-.55.72-.55,1.22,0,.55.17.96.55,1.28.38.32.81.49,1.25.49.49,0,.9-.17,1.28-.55.35-.38.52-.78.52-1.19h-.03c0-.49-.17-.93-.52-1.27Z"/>
          <path class="cls-1" d="M126.24,60.91l-3.36.75.52,3.71v2.87c0,1.54-.72,2.29-2.15,2.29h-4.58c-1.42,0-2.12-.81-2.12-2.41v-7.25l-3.45.78.58,3.89.03,7.28c0,2.9-1.33,4.75-4.03,5.6l.64,1.13c3.8-1.04,5.86-3.25,6.2-6.61.35.14.84.2,1.45.2h6c1.33,0,2.38-.38,3.13-1.13.78-.78,1.16-1.8,1.16-3.07h-.03v-8.03Z"/>
          <path class="cls-1" d="M170.34,54.48c-.49,0-.9.17-1.25.52-.32.32-.49.72-.49,1.22,0,.52.17.96.52,1.28.32.32.72.49,1.22.49s.93-.17,1.28-.52c.32-.32.49-.72.49-1.22s-.17-.93-.52-1.28c-.32-.32-.75-.49-1.25-.49Z"/>
          <path class="cls-1" d="M173.73,55c-.32.32-.49.72-.49,1.22,0,.52.17.96.52,1.28.32.32.72.49,1.22.49s.93-.17,1.28-.52c.32-.32.49-.72.49-1.22s-.17-.93-.52-1.28c-.32-.32-.75-.49-1.25-.49s-.9.17-1.25.52Z"/>
          <path class="cls-1" d="M198.81,68.83v-14.52l-3.39.81.52,3.83v9.22c0,1.59-.73,2.38-2.15,2.38h-5.08c-1.39,0-2.09-.78-2.09-2.38v-13.68l-3.45.78.55,3.89v9.02c0,1.59-.7,2.38-2.09,2.38h-3.48c-1.39,0-2.09-.75-2.09-2.29v-7.36l-3.45.78.61,3.77v2.81c0,1.54-.72,2.29-2.15,2.29h-4.61v-4.44c0-1.62-.67-2.93-1.97-3.88-1.25-.96-2.9-1.42-4.99-1.42-1.83,0-3.74.81-5.77,2.46-1.68,1.42-2.93,2.84-3.74,4.32v-8.41l.35-3.83-3.65.32.49,3.57v11.31h-6.76v-10h-4.23c-2.03,0-3.68.67-4.93,1.97s-1.86,2.99-1.86,5.1c0,1.71.55,3.07,1.62,4.12.96.96,2.23,1.42,3.8,1.42h2.75c-.14,2.58-1.48,4.32-3.94,5.28l.61,1.13c3.57-.93,5.62-3.07,6.12-6.41h31.49c1.07,0,2-.29,2.78-.87.73.58,1.68.87,2.84.87h4.9c1.13,0,2.03-.29,2.75-.9.72.61,1.68.9,2.87.9h6.5c1.33,0,2.38-.38,3.16-1.16.78-.78,1.16-1.83,1.16-3.16h-.03ZM137.51,70.54h-2.44c-1.8,0-2.7-1.16-2.7-3.45,0-1.51.32-2.7.96-3.57s1.54-1.3,2.7-1.3h1.48v8.32ZM163.58,70.54h-13.51c.26-.67.67-1.33,1.16-2,.49-.67,1.19-1.45,2.12-2.32,2.06-1.97,3.91-2.96,5.57-2.96,3.1,0,4.67,1.1,4.67,3.31v3.97Z"/>
          <path class="cls-1" d="M3.52,78.34c-.05-.32-.19-.6-.4-.85-.03-.04-.06-.07-.09-.11-.09-.08-.19-.15-.29-.21-.3-.18-.64-.28-.99-.28-.31,0-.59.08-.84.24-.13.08-.26.17-.38.29-.09.08-.16.17-.23.26s-.12.19-.16.29c-.09.21-.13.44-.13.7,0,.22.04.42.11.61.09.24.22.46.41.63.03.03.07.05.11.08.25.19.52.33.79.38.11.02.21.03.32.03.49,0,.93-.17,1.28-.52h0c.22-.2.36-.44.44-.7.05-.16.08-.33.08-.51,0-.11-.01-.22-.03-.32Z"/>
          <path class="cls-1" d="M30.1,70.81h-5.34c-.38,0-.71-.07-1.01-.17-1.12-.41-1.69-1.55-1.69-3.46,0-3.11,1.19-4.65,3.6-4.65h2.56l.47-1.95h-2.82c-.25,0-.5.01-.74.03-1.7.15-3.1.8-4.19,1.94-.94.98-1.53,2.19-1.77,3.63-.08.48-.12.98-.12,1.51,0,.21,0,.42.02.63.11,1.43.63,2.61,1.54,3.5.24.24.5.45.77.63.82.53,1.79.8,2.95.8h2.82c0,.78-.26,1.59-.77,2.38-.04.06-.06.12-.1.17-.18.25-.36.47-.56.66,0,0-.01.01-.02.02-.62.6-1.34.95-2.15,1.06h-13.47v1.89h0s14.13,0,14.13,0c.64-.1,1.24-.26,1.79-.5.92-.4,1.73-.99,2.42-1.79.06-.07.12-.15.18-.22,1.01-1.25,1.51-2.63,1.51-4.19v-1.92h0Z"/>
          <path class="cls-1" d="M7.78,77.55c-.05-.06-.09-.12-.14-.17-.06-.06-.12-.1-.19-.15-.3-.22-.66-.34-1.06-.34-.3,0-.57.07-.81.2-.15.08-.3.18-.44.32-.32.32-.49.75-.49,1.25,0,.35.09.67.27.94.06.1.14.19.23.28.01.01.02.02.03.04h0s.03.02.04.03c.31.3.71.46,1.18.46h0s.02,0,.03,0c.48,0,.9-.18,1.24-.52.02-.02.04-.05.07-.08.27-.31.43-.68.43-1.14,0-.42-.13-.79-.38-1.1Z"/>
        </g>
      </g>
    </g>
  </g>
</svg>