<?xml version="1.0" encoding="UTF-8"?>
<svg id="Layer_2" data-name="Layer 2" xmlns="http://www.w3.org/2000/svg" viewBox="0 0 164.48 217.25">
  <defs>
    <style>
      .cls-1 {
        fill: #231f20;
      }

      .cls-2 {
        fill: #fff;
        fill-rule: evenodd;
      }

      .cls-3 {
        fill: #242215;
      }

      .cls-4 {
        fill: #b09555;
      }
    </style>
  </defs>
  <g id="Layer_1" data-name="Layer 1">
    <g id="Secondary_Logo_EN" data-name="Secondary Logo EN">
      <polygon class="cls-4" points="74.54 .26 74.23 0 73.58 .76 81.11 7.14 0 7.14 0 217.25 164.48 217.25 164.48 7.14 88.23 7.14 74.54 .26"/>
      <g>
        <path class="cls-2" d="M146.36,40.82v-21.83h-8.03c-6.2,0-11.81,2.51-15.87,6.57-4.06,4.06-6.58,9.67-6.58,15.87h26.72c1.3,0,2.57-.21,3.77-.61Z"/>
        <path class="cls-2" d="M96.86,42.33l-1.49,1.65-16.41,18.87c-4.66,5.35-11.4,8.42-18.48,8.42H17.68v-29.84l70.27.23,3.68-4.06c1.53-1.69,2.3-3.88,2.19-6.17-.11-2.3-1.11-4.4-2.79-5.93l-20.15-18.34,10.23-.02,14.66,13.13c3.08,2.79,4.89,6.63,5.1,10.8.21,4.18-1.21,8.18-4,11.26Z"/>
        <path class="cls-2" d="M121.38,87.24c-10.51,0-20.42,4.88-26.83,13.21l-.66,20.72h31.32v5.4H52.66l-5.31,6.59c-.26.23-7.6.4-9.17.38-2.38-.03-4.43-1.3-5.12-3.67-.55-1.91-.23-4.49,2.33-6.02l8.53-4.91c7.59-4.37,15.81-7.44,24.29-9.65,7.32-1.9,14-5.94,19.12-11.71l5.78-6.51c5.52-6.22,13.44-9.78,21.75-9.78h31.57v-30.09l-33.98-.81c-5.76-.14-11.28,2.32-15.03,6.69l-11.53,13.42c-5.74,6.69-14.11,10.54-22.92,10.54H17.68v29.84h17.5l7.68-.44c.6-.08.84.75.29,1.01l-5.56,2.86-5.82,3.5c-4.87,2.91-7.06,8.55-5.47,14.03,1.54,5.29,6.18,8.78,11.63,8.78l108.5-.15v-53.22h-25.04Z"/>
      </g>
      <g>
        <g>
          <path class="cls-1" d="M29.73,22.04v-.05c1.21-.41,2.17-1.42,2.17-2.94,0-.89-.32-1.67-.91-2.19-.72-.65-1.74-.94-3.33-.94-1.03,0-2.1.08-2.85.24v11.36h1.49v-4.99h1.4c1.35.05,1.96.65,2.31,2.24.32,1.43.58,2.43.77,2.75h1.54c-.24-.44-.51-1.56-.89-3.16-.27-1.2-.8-2.02-1.69-2.32ZM27.81,21.41h-1.52v-4.2c.24-.07.75-.14,1.47-.14,1.57.02,2.65.67,2.65,2.15,0,1.32-1.01,2.19-2.6,2.19Z"/>
          <path class="cls-1" d="M27.83,11.68c-5.82,0-10.56,4.74-10.56,10.56s4.74,10.55,10.56,10.55,10.55-4.74,10.55-10.55-4.74-10.56-10.55-10.56ZM27.83,31.36c-5.03,0-9.13-4.1-9.13-9.13s4.1-9.13,9.13-9.13,9.13,4.1,9.13,9.13-4.1,9.13-9.13,9.13Z"/>
        </g>
        <g>
          <path class="cls-2" d="M29.73,22.04v-.05c1.21-.41,2.17-1.42,2.17-2.94,0-.89-.32-1.67-.91-2.19-.72-.65-1.74-.94-3.33-.94-1.03,0-2.1.08-2.85.24v11.36h1.49v-4.99h1.4c1.35.05,1.96.65,2.31,2.24.32,1.43.58,2.43.77,2.75h1.54c-.24-.44-.51-1.56-.89-3.16-.27-1.2-.8-2.02-1.69-2.32ZM27.81,21.41h-1.52v-4.2c.24-.07.75-.14,1.47-.14,1.57.02,2.65.67,2.65,2.15,0,1.32-1.01,2.19-2.6,2.19Z"/>
          <path class="cls-2" d="M27.83,11.68c-5.82,0-10.56,4.74-10.56,10.56s4.74,10.55,10.56,10.55,10.55-4.74,10.55-10.55-4.74-10.56-10.55-10.56ZM27.83,31.36c-5.03,0-9.13-4.1-9.13-9.13s4.1-9.13,9.13-9.13,9.13,4.1,9.13,9.13-4.1,9.13-9.13,9.13Z"/>
        </g>
      </g>
      <rect class="cls-3" x="88.52" y="194.68" width="75.96" height="2.2"/>
      <g>
        <path class="cls-3" d="M29.75,175.74h-3.44l-.9-2.61h-4.78l-.9,2.61h-3.35l4.77-12.91h3.83l4.77,12.91ZM24.62,170.77l-1.59-4.62-1.59,4.62h3.18Z"/>
        <path class="cls-3" d="M40.23,175.74h-9.31v-12.91h3.33v10.41h5.98v2.5Z"/>
        <path class="cls-3" d="M55.54,165.33h-5.94v2.4h5.5v2.5h-5.5v5.51h-3.31v-12.91h9.25v2.5Z"/>
        <path class="cls-3" d="M69.08,175.74h-3.44l-.9-2.61h-4.78l-.9,2.61h-3.35l4.77-12.91h3.83l4.77,12.91ZM63.94,170.77l-1.59-4.62-1.59,4.62h3.18Z"/>
        <path class="cls-3" d="M81.81,175.74h-3.33v-5.69h-4.91v5.69h-3.33v-12.91h3.33v4.72h4.91v-4.72h3.33v12.91Z"/>
        <path class="cls-3" d="M96.61,169.3c0,1.2-.27,2.28-.82,3.23-.55.95-1.24,1.68-2.08,2.19-.63.38-1.32.65-2.07.8-.75.15-1.64.23-2.67.23h-4.55v-12.91h4.68c1.05,0,1.96.09,2.72.26.76.18,1.4.43,1.92.75.89.54,1.59,1.28,2.1,2.2.51.92.77,2.01.77,3.25ZM93.17,169.28c0-.85-.15-1.58-.46-2.18s-.8-1.08-1.47-1.42c-.34-.17-.69-.28-1.04-.34-.36-.06-.89-.09-1.61-.09h-.84v8.08h.84c.79,0,1.37-.04,1.74-.11.37-.07.73-.2,1.08-.39.61-.35,1.05-.81,1.33-1.39.28-.58.42-1.3.42-2.15Z"/>
        <path class="cls-3" d="M115.64,175.74h-4.06l-3.51-4.73h-1.54v4.73h-3.31v-12.91h5.58c.76,0,1.42.04,1.97.13.55.09,1.06.27,1.54.56.49.29.87.66,1.16,1.12s.43,1.04.43,1.73c0,.95-.22,1.73-.66,2.33-.44.6-1.07,1.1-1.89,1.5l4.31,5.53ZM110.45,166.79c0-.32-.07-.6-.2-.83-.13-.23-.36-.41-.68-.55-.23-.09-.49-.15-.79-.17-.3-.02-.65-.03-1.05-.03h-1.2v3.48h1.02c.53,0,.98-.03,1.33-.08.36-.05.66-.17.9-.36.23-.18.4-.38.51-.59s.16-.51.16-.87Z"/>
        <path class="cls-3" d="M125.75,175.74h-9.33v-12.91h9.33v2.5h-6.02v2.23h5.59v2.5h-5.59v3.19h6.02v2.5Z"/>
        <path class="cls-3" d="M139.77,175.74h-3.44l-.9-2.61h-4.78l-.9,2.61h-3.35l4.77-12.91h3.83l4.77,12.91ZM134.64,170.77l-1.59-4.62-1.59,4.62h3.18Z"/>
        <path class="cls-3" d="M150.25,175.74h-9.31v-12.91h3.33v10.41h5.98v2.5Z"/>
        <path class="cls-3" d="M27.16,197.05h-9.33v-12.91h9.33v2.5h-6.02v2.23h5.59v2.5h-5.59v3.19h6.02v2.5Z"/>
        <path class="cls-3" d="M39.59,192.99c0,1.27-.54,2.3-1.62,3.1-1.08.79-2.54,1.19-4.39,1.19-1.07,0-2-.09-2.8-.28-.79-.19-1.54-.43-2.23-.71v-3.09h.36c.69.55,1.46.97,2.31,1.27.85.29,1.67.44,2.46.44.2,0,.47-.02.8-.05.33-.03.6-.09.81-.17.25-.1.46-.23.63-.39.16-.16.25-.39.25-.69,0-.28-.12-.53-.36-.73s-.59-.36-1.05-.47c-.49-.12-1-.22-1.54-.33-.54-.1-1.05-.23-1.52-.39-1.09-.35-1.87-.83-2.34-1.43-.48-.6-.71-1.35-.71-2.25,0-1.2.54-2.18,1.62-2.94s2.46-1.14,4.16-1.14c.85,0,1.69.08,2.52.25.83.16,1.55.37,2.15.62v2.97h-.36c-.52-.42-1.16-.76-1.91-1.04-.75-.28-1.52-.42-2.31-.42-.28,0-.55.02-.83.06s-.54.11-.79.21c-.23.09-.42.22-.58.39-.16.18-.24.38-.24.6,0,.34.13.6.39.78.26.18.75.35,1.47.5.47.1.93.19,1.37.29.44.09.91.22,1.41.38.99.32,1.72.76,2.19,1.32.47.56.71,1.28.71,2.17Z"/>
        <path class="cls-3" d="M51.28,186.64h-4.03v10.41h-3.33v-10.41h-4.03v-2.5h11.39v2.5Z"/>
        <path class="cls-3" d="M64.52,197.05h-3.44l-.9-2.61h-4.78l-.9,2.61h-3.35l4.77-12.91h3.83l4.77,12.91ZM59.38,192.07l-1.59-4.62-1.59,4.62h3.18Z"/>
        <path class="cls-3" d="M75.78,186.64h-4.03v10.41h-3.33v-10.41h-4.03v-2.5h11.39v2.5Z"/>
        <path class="cls-3" d="M86.43,197.05h-9.33v-12.91h9.33v2.5h-6.02v2.23h5.59v2.5h-5.59v3.19h6.02v2.5Z"/>
      </g>
    </g>
  </g>
</svg>