<?xml version="1.0" encoding="UTF-8"?>
<svg id="Layer_3" data-name="Layer 3" xmlns="http://www.w3.org/2000/svg" viewBox="0 0 164.48 217.25">
  <defs>
    <style>
      .cls-1 {
        fill: #231f20;
      }

      .cls-2 {
        fill: #fff;
        fill-rule: evenodd;
      }

      .cls-3 {
        fill: #242215;
      }

      .cls-4 {
        fill: #b09555;
      }

      .cls-5 {
        fill: #808184;
      }
    </style>
  </defs>
  <g id="Layer_1" data-name="Layer 1">
    <g id="Secondary_Logo_AR" data-name="Secondary Logo AR">
      <polygon class="cls-4" points="88.23 7.14 74.54 .26 74.23 0 73.58 .76 81.11 7.14 0 7.14 0 217.25 164.48 217.25 164.48 7.14 88.23 7.14"/>
      <g>
        <path class="cls-2" d="M146.36,40.82v-21.83h-8.03c-6.2,0-11.81,2.51-15.87,6.57-4.06,4.06-6.58,9.67-6.58,15.87h26.72c1.3,0,2.57-.21,3.77-.61Z"/>
        <path class="cls-2" d="M96.86,42.33l-1.49,1.65-16.41,18.87c-4.66,5.35-11.4,8.42-18.48,8.42H17.68v-29.84l70.27.23,3.68-4.06c1.53-1.69,2.3-3.88,2.19-6.17-.11-2.3-1.11-4.4-2.79-5.93l-20.4-18.46h10.34s14.79,13.23,14.79,13.23c3.08,2.79,4.89,6.63,5.1,10.8.21,4.18-1.21,8.18-4,11.26Z"/>
        <path class="cls-2" d="M121.38,87.24c-10.51,0-20.42,4.88-26.83,13.21l-.66,20.72h31.32v5.4H52.66l-5.31,6.59c-.26.23-7.6.4-9.17.38-2.38-.03-4.43-1.3-5.12-3.67-.55-1.91-.23-4.49,2.33-6.02l8.53-4.91c7.59-4.37,15.81-7.44,24.29-9.65,7.32-1.9,14-5.94,19.12-11.71l5.78-6.51c5.52-6.22,13.44-9.78,21.75-9.78h31.57v-30.09l-33.98-.81c-5.76-.14-11.28,2.32-15.03,6.69l-11.53,13.42c-5.74,6.69-14.11,10.54-22.92,10.54H17.68v29.84h17.5l7.68-.44c.6-.08.84.75.29,1.01l-5.56,2.86-5.82,3.5c-4.87,2.91-7.06,8.55-5.47,14.03,1.54,5.29,6.18,8.78,11.63,8.78l108.5-.15v-53.22h-25.04Z"/>
      </g>
      <g>
        <g>
          <path class="cls-1" d="M29.73,22.04v-.05c1.21-.41,2.17-1.42,2.17-2.94,0-.89-.32-1.67-.91-2.19-.72-.65-1.74-.94-3.33-.94-1.03,0-2.1.08-2.85.24v11.36h1.49v-4.99h1.4c1.35.05,1.96.65,2.31,2.24.32,1.43.58,2.43.77,2.75h1.54c-.24-.44-.51-1.56-.89-3.16-.27-1.2-.8-2.02-1.69-2.32ZM27.81,21.41h-1.52v-4.2c.24-.07.75-.14,1.47-.14,1.57.02,2.65.67,2.65,2.15,0,1.32-1.01,2.19-2.6,2.19Z"/>
          <path class="cls-1" d="M27.83,11.68c-5.82,0-10.56,4.74-10.56,10.56s4.74,10.55,10.56,10.55,10.55-4.74,10.55-10.55-4.74-10.56-10.55-10.56ZM27.83,31.36c-5.03,0-9.13-4.1-9.13-9.13s4.1-9.13,9.13-9.13,9.13,4.1,9.13,9.13-4.1,9.13-9.13,9.13Z"/>
        </g>
        <g>
          <path class="cls-2" d="M29.73,22.04v-.05c1.21-.41,2.17-1.42,2.17-2.94,0-.89-.32-1.67-.91-2.19-.72-.65-1.74-.94-3.33-.94-1.03,0-2.1.08-2.85.24v11.36h1.49v-4.99h1.4c1.35.05,1.96.65,2.31,2.24.32,1.43.58,2.43.77,2.75h1.54c-.24-.44-.51-1.56-.89-3.16-.27-1.2-.8-2.02-1.69-2.32ZM27.81,21.41h-1.52v-4.2c.24-.07.75-.14,1.47-.14,1.57.02,2.65.67,2.65,2.15,0,1.32-1.01,2.19-2.6,2.19Z"/>
          <path class="cls-2" d="M27.83,11.68c-5.82,0-10.56,4.74-10.56,10.56s4.74,10.55,10.56,10.55,10.55-4.74,10.55-10.55-4.74-10.56-10.55-10.56ZM27.83,31.36c-5.03,0-9.13-4.1-9.13-9.13s4.1-9.13,9.13-9.13,9.13,4.1,9.13,9.13-4.1,9.13-9.13,9.13Z"/>
        </g>
      </g>
      <g>
        <g>
          <path class="cls-5" d="M70.43,175.35c-.44,0-.83.17-1.16.5-.36.3-.52.69-.52,1.16,0,.52.17.91.52,1.21.36.3.77.47,1.18.47.47,0,.85-.17,1.21-.52.33-.36.49-.74.49-1.13h-.03c0-.47-.17-.88-.49-1.21-.36-.3-.77-.47-1.21-.47Z"/>
          <path class="cls-5" d="M74.84,175.35c-.47,0-.85.17-1.18.5-.36.3-.52.69-.52,1.16,0,.52.17.91.52,1.21.36.3.77.47,1.21.47.47,0,.85-.17,1.18-.52.33-.33.5-.72.5-1.13h-.03c0-.47-.17-.88-.5-1.21-.36-.3-.77-.47-1.18-.47Z"/>
          <path class="cls-5" d="M31.18,172.41c.33.14.8.19,1.38.19h5.7c1.27,0,37.23.64,37.95-.07.74-.74,1.1-2.71,1.1-3.92h-.03v-7.63l-3.19.72.5,3.53v2.73c0,1.46-.69,2.17-2.04,2.17h-39.33c-1.35,0-2.01-.77-2.01-2.29v-6.89l-3.28.74.55,3.69.03,6.91c0,2.75-1.27,4.52-3.83,5.32l.61,1.07c3.61-.99,5.56-3.09,5.89-6.28Z"/>
          <path class="cls-5" d="M93.07,172.6h27.58c1.02,0,1.9-.28,2.64-.83.69.55,1.6.83,2.7.83h4.66c1.07,0,1.93-.28,2.62-.85.69.58,1.6.85,2.73.85h6.17c1.27,0,2.26-.36,3-1.1.74-.74,1.1-1.74,1.1-3h-.03v-13.8l-3.22.77.5,3.64v8.76c0,1.51-.69,2.26-2.04,2.26h-4.82c-1.32,0-1.98-.74-1.98-2.26v-13l-3.28.74.52,3.69v8.57c0,1.51-.66,2.26-1.98,2.26h-3.31c-1.32,0-1.98-.72-1.98-2.17v-7l-3.28.74.58,3.58v2.67c0,1.46-.69,2.17-2.04,2.17h-4.39v-4.21c0-1.54-.63-2.78-1.87-3.69-1.19-.91-2.75-1.35-4.74-1.35-1.74,0-3.55.77-5.48,2.34-1.6,1.35-2.78,2.7-3.55,4.1v-7.99l.33-3.64-3.47.3.47,3.39v10.74h-6.42v-9.5h-4.02c-1.93,0-3.5.63-4.68,1.87-1.18,1.24-1.76,2.84-1.76,4.85,0,1.62.52,2.92,1.54,3.91.91.91,2.12,1.35,3.61,1.35h2.62c-.14,2.45-1.41,4.1-3.75,5.01l.58,1.07c3.39-.88,5.34-2.92,5.81-6.09h2.34ZM101.03,168.22c.47-.63,1.13-1.38,2.01-2.2,1.95-1.87,3.72-2.81,5.29-2.81,2.95,0,4.43,1.05,4.43,3.14v3.77h-12.83c.25-.63.63-1.27,1.1-1.9ZM88,170.12h-2.31c-1.71,0-2.56-1.1-2.56-3.28,0-1.43.3-2.56.91-3.39.61-.83,1.46-1.24,2.56-1.24h1.41v7.9Z"/>
          <path class="cls-5" d="M142.6,180.8l-3.22.77.5,3.64v8.76c0,1.51-.69,2.26-2.04,2.26h-3.53s0,.04,0,.05h-2.19s-1.43.01-1.43.01c-.8,0-1.46-.27-2.04-.8-.63-.63-.94-1.46-.94-2.48,0-2.56,1.13-3.86,3.39-3.86,1.05,0,2.12.36,3.19,1.05l1.05-1.24c-1.74-1.3-3.36-1.93-4.87-1.96-1.57-.03-2.86.52-3.94,1.6-1.02,1.13-1.54,2.53-1.54,4.19,0,1.38.36,2.53,1.1,3.5h-8.18c.96-.94,1.43-2.12,1.43-3.58,0-1.62-.52-2.95-1.6-3.99-1.07-1.07-2.56-1.6-4.41-1.6s-3.33.52-4.41,1.6c-1.07,1.05-1.6,2.37-1.6,3.99,0,1.46.47,2.64,1.41,3.58h-5.57c-1.32,0-1.98-.74-1.98-2.26v-13l-3.22.74.47,3.53v9.36c0,1.3.36,2.29,1.1,3.03.72.72,1.71,1.07,2.97,1.07h8.49c.22,0,.99-.11,2.34-.33,1.46.22,2.23.33,2.31.33h6.14l12.39-.08v.02s.03,0,.03,0h4.33c1.27,0,2.26-.36,3-1.1.74-.74,1.1-1.74,1.1-3h-.03v-13.8ZM115.67,195.3c-.55.88-1.32,1.32-2.31,1.32-2.07,0-3.08-1.35-3.08-4.05,0-1.19.33-2.12.96-2.75.55-.55,1.24-.83,2.09-.83s1.51.27,2.07.83c.66.66.99,1.57.99,2.75,0,1.07-.25,1.98-.72,2.73Z"/>
          <path class="cls-5" d="M145.16,180.8v16.74s2.72-.18,2.72-.49v-11.84l.5-3.63-3.22-.78Z"/>
          <path class="cls-5" d="M123.59,158.19c.47,0,.88-.17,1.21-.5.3-.3.47-.69.47-1.16s-.17-.88-.5-1.21c-.3-.3-.72-.47-1.18-.47s-.85.17-1.19.5c-.3.3-.47.69-.47,1.16,0,.5.17.91.49,1.21.3.3.69.47,1.16.47Z"/>
          <path class="cls-5" d="M119.19,158.19c.47,0,.88-.17,1.21-.5.3-.3.47-.69.47-1.16s-.17-.88-.49-1.21c-.3-.3-.72-.47-1.19-.47s-.85.17-1.18.5c-.3.3-.47.69-.47,1.16,0,.5.17.91.5,1.21.3.3.69.47,1.16.47Z"/>
          <path class="cls-5" d="M64.98,202.6c-.47,0-.85.17-1.18.5-.3.3-.47.72-.47,1.18s.17.88.5,1.18c.3.3.69.47,1.16.47s.88-.17,1.21-.5c.3-.3.47-.69.47-1.16s-.17-.88-.5-1.21c-.3-.3-.72-.47-1.18-.47Z"/>
          <path class="cls-5" d="M60.58,202.6c-.44,0-.83.17-1.16.5-.33.3-.5.69-.5,1.18,0,.47.17.88.5,1.18.36.3.74.47,1.16.47.47,0,.88-.17,1.21-.5.33-.3.5-.69.5-1.16s-.17-.88-.5-1.21c-.36-.3-.77-.47-1.21-.47Z"/>
          <path class="cls-5" d="M79.83,193.4c0-2.95,1.13-4.41,3.42-4.41h2.42l.44-1.85h-2.67c-1.93,0-3.5.63-4.68,1.87-1.18,1.24-1.79,2.86-1.79,4.87,0,1.62.5,2.95,1.49,3.91.91.91,2.07,1.35,3.53,1.35h2.67c0,.8-.28,1.62-.83,2.42-.69.96-1.57,1.52-2.59,1.65h-12.77v1.79h13.4c1.62-.25,2.95-.96,3.99-2.17,1.07-1.24,1.6-2.62,1.6-4.19v-1.82h-5.07c-1.71,0-2.56-1.16-2.56-3.44Z"/>
          <path class="cls-5" d="M92.97,191.56l.03,6.91c0,2.73-1.27,4.52-3.8,5.32l.58,1.07c3.94-1.1,5.92-3.53,5.92-7.24v-10.49l-3.28.74.55,3.69Z"/>
          <path class="cls-5" d="M109.94,181.53c-.33.3-.5.69-.5,1.18s.17.88.52,1.18c.36.3.74.47,1.16.47.47,0,.88-.17,1.21-.5.33-.3.5-.69.5-1.16s-.17-.88-.52-1.21c-.36-.3-.77-.47-1.18-.47s-.83.17-1.18.5Z"/>
          <path class="cls-5" d="M114.35,181.53c-.33.3-.49.69-.49,1.18,0,.47.17.88.49,1.18.36.3.77.47,1.19.47.47,0,.88-.17,1.21-.5.3-.3.47-.69.47-1.16s-.17-.88-.5-1.21c-.36-.3-.77-.47-1.18-.47-.47,0-.85.17-1.19.5Z"/>
          <rect class="cls-5" x=".07" y="203.17" width="56.9" height="1.8"/>
        </g>
        <g>
          <path class="cls-3" d="M70.43,175.35c-.44,0-.83.17-1.16.5-.36.3-.52.69-.52,1.16,0,.52.17.91.52,1.21.36.3.77.47,1.18.47.47,0,.85-.17,1.21-.52.33-.36.49-.74.49-1.13h-.03c0-.47-.17-.88-.49-1.21-.36-.3-.77-.47-1.21-.47Z"/>
          <path class="cls-3" d="M74.84,175.35c-.47,0-.85.17-1.18.5-.36.3-.52.69-.52,1.16,0,.52.17.91.52,1.21.36.3.77.47,1.21.47.47,0,.85-.17,1.18-.52.33-.33.5-.72.5-1.13h-.03c0-.47-.17-.88-.5-1.21-.36-.3-.77-.47-1.18-.47Z"/>
          <path class="cls-3" d="M31.18,172.41c.33.14.8.19,1.38.19h5.7c1.27,0,37.23.64,37.95-.07.74-.74,1.1-2.71,1.1-3.92h-.03v-7.63l-3.19.72.5,3.53v2.73c0,1.46-.69,2.17-2.04,2.17h-39.33c-1.35,0-2.01-.77-2.01-2.29v-6.89l-3.28.74.55,3.69.03,6.91c0,2.75-1.27,4.52-3.83,5.32l.61,1.07c3.61-.99,5.56-3.09,5.89-6.28Z"/>
          <path class="cls-3" d="M93.07,172.6h27.58c1.02,0,1.9-.28,2.64-.83.69.55,1.6.83,2.7.83h4.66c1.07,0,1.93-.28,2.62-.85.69.58,1.6.85,2.73.85h6.17c1.27,0,2.26-.36,3-1.1.74-.74,1.1-1.74,1.1-3h-.03v-13.8l-3.22.77.5,3.64v8.76c0,1.51-.69,2.26-2.04,2.26h-4.82c-1.32,0-1.98-.74-1.98-2.26v-13l-3.28.74.52,3.69v8.57c0,1.51-.66,2.26-1.98,2.26h-3.31c-1.32,0-1.98-.72-1.98-2.17v-7l-3.28.74.58,3.58v2.67c0,1.46-.69,2.17-2.04,2.17h-4.39v-4.21c0-1.54-.63-2.78-1.87-3.69-1.19-.91-2.75-1.35-4.74-1.35-1.74,0-3.55.77-5.48,2.34-1.6,1.35-2.78,2.7-3.55,4.1v-7.99l.33-3.64-3.47.3.47,3.39v10.74h-6.42v-9.5h-4.02c-1.93,0-3.5.63-4.68,1.87-1.18,1.24-1.76,2.84-1.76,4.85,0,1.62.52,2.92,1.54,3.91.91.91,2.12,1.35,3.61,1.35h2.62c-.14,2.45-1.41,4.1-3.75,5.01l.58,1.07c3.39-.88,5.34-2.92,5.81-6.09h2.34ZM101.03,168.22c.47-.63,1.13-1.38,2.01-2.2,1.95-1.87,3.72-2.81,5.29-2.81,2.95,0,4.43,1.05,4.43,3.14v3.77h-12.83c.25-.63.63-1.27,1.1-1.9ZM88,170.12h-2.31c-1.71,0-2.56-1.1-2.56-3.28,0-1.43.3-2.56.91-3.39.61-.83,1.46-1.24,2.56-1.24h1.41v7.9Z"/>
          <path class="cls-3" d="M142.6,180.8l-3.22.77.5,3.64v8.76c0,1.51-.69,2.26-2.04,2.26h-3.53s0,.04,0,.05h-2.19s-1.43.01-1.43.01c-.8,0-1.46-.27-2.04-.8-.63-.63-.94-1.46-.94-2.48,0-2.56,1.13-3.86,3.39-3.86,1.05,0,2.12.36,3.19,1.05l1.05-1.24c-1.74-1.3-3.36-1.93-4.87-1.96-1.57-.03-2.86.52-3.94,1.6-1.02,1.13-1.54,2.53-1.54,4.19,0,1.38.36,2.53,1.1,3.5h-8.18c.96-.94,1.43-2.12,1.43-3.58,0-1.62-.52-2.95-1.6-3.99-1.07-1.07-2.56-1.6-4.41-1.6s-3.33.52-4.41,1.6c-1.07,1.05-1.6,2.37-1.6,3.99,0,1.46.47,2.64,1.41,3.58h-5.57c-1.32,0-1.98-.74-1.98-2.26v-13l-3.22.74.47,3.53v9.36c0,1.3.36,2.29,1.1,3.03.72.72,1.71,1.07,2.97,1.07h8.49c.22,0,.99-.11,2.34-.33,1.46.22,2.23.33,2.31.33h6.14l12.39-.08v.02s.03,0,.03,0h4.33c1.27,0,2.26-.36,3-1.1.74-.74,1.1-1.74,1.1-3h-.03v-13.8ZM115.67,195.3c-.55.88-1.32,1.32-2.31,1.32-2.07,0-3.08-1.35-3.08-4.05,0-1.19.33-2.12.96-2.75.55-.55,1.24-.83,2.09-.83s1.51.27,2.07.83c.66.66.99,1.57.99,2.75,0,1.07-.25,1.98-.72,2.73Z"/>
          <path class="cls-3" d="M145.16,180.8v16.74s2.72-.18,2.72-.49v-11.84l.5-3.63-3.22-.78Z"/>
          <path class="cls-3" d="M123.59,158.19c.47,0,.88-.17,1.21-.5.3-.3.47-.69.47-1.16s-.17-.88-.5-1.21c-.3-.3-.72-.47-1.18-.47s-.85.17-1.19.5c-.3.3-.47.69-.47,1.16,0,.5.17.91.49,1.21.3.3.69.47,1.16.47Z"/>
          <path class="cls-3" d="M119.19,158.19c.47,0,.88-.17,1.21-.5.3-.3.47-.69.47-1.16s-.17-.88-.49-1.21c-.3-.3-.72-.47-1.19-.47s-.85.17-1.18.5c-.3.3-.47.69-.47,1.16,0,.5.17.91.5,1.21.3.3.69.47,1.16.47Z"/>
          <path class="cls-3" d="M64.98,202.6c-.47,0-.85.17-1.18.5-.3.3-.47.72-.47,1.18s.17.88.5,1.18c.3.3.69.47,1.16.47s.88-.17,1.21-.5c.3-.3.47-.69.47-1.16s-.17-.88-.5-1.21c-.3-.3-.72-.47-1.18-.47Z"/>
          <path class="cls-3" d="M60.58,202.6c-.44,0-.83.17-1.16.5-.33.3-.5.69-.5,1.18,0,.47.17.88.5,1.18.36.3.74.47,1.16.47.47,0,.88-.17,1.21-.5.33-.3.5-.69.5-1.16s-.17-.88-.5-1.21c-.36-.3-.77-.47-1.21-.47Z"/>
          <path class="cls-3" d="M79.83,193.4c0-2.95,1.13-4.41,3.42-4.41h2.42l.44-1.85h-2.67c-1.93,0-3.5.63-4.68,1.87-1.18,1.24-1.79,2.86-1.79,4.87,0,1.62.5,2.95,1.49,3.91.91.91,2.07,1.35,3.53,1.35h2.67c0,.8-.28,1.62-.83,2.42-.69.96-1.57,1.52-2.59,1.65h-12.77v1.79h13.4c1.62-.25,2.95-.96,3.99-2.17,1.07-1.24,1.6-2.62,1.6-4.19v-1.82h-5.07c-1.71,0-2.56-1.16-2.56-3.44Z"/>
          <path class="cls-3" d="M92.97,191.56l.03,6.91c0,2.73-1.27,4.52-3.8,5.32l.58,1.07c3.94-1.1,5.92-3.53,5.92-7.24v-10.49l-3.28.74.55,3.69Z"/>
          <path class="cls-3" d="M109.94,181.53c-.33.3-.5.69-.5,1.18s.17.88.52,1.18c.36.3.74.47,1.16.47.47,0,.88-.17,1.21-.5.33-.3.5-.69.5-1.16s-.17-.88-.52-1.21c-.36-.3-.77-.47-1.18-.47s-.83.17-1.18.5Z"/>
          <path class="cls-3" d="M114.35,181.53c-.33.3-.49.69-.49,1.18,0,.47.17.88.49,1.18.36.3.77.47,1.19.47.47,0,.88-.17,1.21-.5.3-.3.47-.69.47-1.16s-.17-.88-.5-1.21c-.36-.3-.77-.47-1.18-.47-.47,0-.85.17-1.19.5Z"/>
          <rect class="cls-3" x=".07" y="203.17" width="56.9" height="1.8"/>
        </g>
      </g>
    </g>
  </g>
</svg>